<?xml version="1.0" standalone="no"?><!DOCTYPE svg PUBLIC "-//W3C//DTD SVG 1.1//EN" "http://www.w3.org/Graphics/SVG/1.1/DTD/svg11.dtd"><svg t="1730363162252" class="icon" viewBox="0 0 1365 1024" version="1.1" xmlns="http://www.w3.org/2000/svg" p-id="5496" xmlns:xlink="http://www.w3.org/1999/xlink" width="266.6015625" height="200"><path d="M0.000711 0h1364.196502v1023.147377H0.000711V0z" fill="#ffffff" opacity=".998" p-id="5497" data-spm-anchor-id="a313x.search_index.0.i0.4f083a81bAo6FC" class="selected"></path><path d="M387.091468 250.671107h10.231474c-2.042884 18.102888-12.274358 26.629116-30.694421 25.578685a60.524283 60.524283 0 0 1 5.968359-20.462948 235.605262 235.605262 0 0 0 14.494588-5.115737z" fill="#4583F8" p-id="5498"></path><path d="M1014.62186 242.144879c1.698425-0.146651 3.118894 0.422901 4.263114 1.705246a215.341828 215.341828 0 0 0 11.084096 14.494588c-8.193705 1.331797-16.152087 0.479174-23.873439-2.557869 2.886981-4.576879 5.729625-9.124769 8.526229-13.641965z" fill="#4681F8" p-id="5499"></path><path d="M182.461993 279.660283c13.205422-0.770771 17.18376 4.629742 11.936719 16.199834-8.828057 4.680899-13.943794 2.123031-15.34721-7.673606-0.10743-3.434365 1.028263-6.277009 3.410491-8.526228z" fill="#FF735B" p-id="5500"></path><path d="M936.180561 305.238968c13.200306 0.405848 16.610798 6.374208 10.231473 17.905079-8.853635 3.19222-13.969372 0.349575-15.34721-8.526229 0.619004-3.737898 2.32425-6.865319 5.115737-9.37885z" fill="#F4DF7F" p-id="5501"></path><path d="M559.321277 436.542881c-4.658731 2.617552-9.204916 5.744973-13.641965 9.378851-10.598102-0.110841-20.829575-2.383933-30.694422-6.820983-6.162758-5.020243-8.43585-11.55645-6.820982-19.610324a740.47563 740.47563 0 0 1-54.56786-15.347211 77.116323 77.116323 0 0 0-11.93672 7.673605c-9.085549 3.19563-17.896553 2.343007-26.431307-2.557868-3.199041 1.90817-4.61951 4.750814-4.263114 8.526228-0.189282 1.052137-0.757129 1.904759-1.705246 2.557868a31.466898 31.466898 0 0 1-10.231473 0.852623 111.091637 111.091637 0 0 1-2.557869-17.052456c-18.771344-6.855087-23.887081-19.359654-15.34721-37.515404 5.24363-12.610291 14.33941-16.588629 27.28393-11.936719 6.720373-8.734268 15.531377-13.282158 26.431307-13.641965 2.15202-11.546218 8.973002-19.219823 20.462947-23.020816 10.398588-2.296966 19.777439-0.306944 28.136553 5.968359 12.988856-8.706984 26.346045-8.99176 40.073273-0.852622 4.878708 3.78394 8.289199 8.616606 10.231473 14.494587 24.980143 3.910128 35.211617 18.11994 30.694422 42.631141 12.398841 12.35621 14.956709 26.566022 7.673605 42.631141a424.989842 424.989842 0 0 1-12.789342 13.641965z" fill="#313232" p-id="5502"></path><path d="M1040.200544 317.175687a1575.868643 1575.868643 0 0 1 124.482931 2.557868c34.012829 14.885089 45.666478 40.178998 34.957535 75.883431-8.219284 17.316769-21.578178 28.400866-40.073272 33.25229l-63.094088 1.705245c-13.659017 3.132536-25.595737 9.385672-35.810158 18.757702a14.375221 14.375221 0 0 1-6.820983 0.852623v-20.462948c-31.149722-1.299397-50.190495-17.214455-57.125729-47.746877-1.333502-32.447414 13.161086-54.046055 43.483764-64.799334z" fill="#4684F8" p-id="5503"></path><path d="M1111.82086 352.985845c4.546185-0.740077 6.536206 0.965169 5.96836 5.115737-6.133769 2.670415-8.122085 0.965169-5.96836-5.115737z" fill="#F4F7FE" p-id="5504"></path><path d="M1069.18972 352.985845h6.820982v15.347211h18.757702v-15.347211h6.820983v37.515404h-6.820983v-17.052456h-18.757702v17.052456h-6.820982v-37.515404z" fill="#E8EFFE" p-id="5505"></path><path d="M1111.82086 363.217319h5.115737v27.28393h-5.115737v-27.28393z" fill="#FDFDFE" p-id="5506"></path><path d="M1128.873317 368.333056c4.757635-0.474058 9.020749 0.663341 12.789342 3.410491 2.150315-0.441659 3.85556-1.579057 5.115737-3.410491 3.130831 4.945212 1.425585 7.787857-5.115737 8.526228a73.813262 73.813262 0 0 0-9.378851-5.115737c-6.887487 4.481386-8.024886 3.343987-3.410491-3.410491z" fill="#EFF3FE" p-id="5507"></path><path d="M946.412034 484.289759c-3.064326-2.097452-6.474818-3.233146-10.231473-3.410492v-11.936719c-17.471947 0.216566-31.396983-6.604416-41.778518-20.462948 0.277955 12.501156-5.690405 19.322138-17.905079 20.462948a42.5203 42.5203 0 0 0-0.852623-11.93672c-5.622195 5.229988-12.160107 8.92355-19.610325 11.084097-18.179624 0.852623-36.369479 1.137399-54.56786 0.852623v11.936719c-4.020969-0.421196-7.43146 0.714498-10.231474 3.410492-0.283071-15.925289 0-31.842052 0.852623-47.746878 4.858245-33.934388 23.899017-54.682112 57.125729-62.241466 13.111634-1.103294 26.185752-0.818518 39.220649 0.852623v-8.526228c29.749715 9.573249 48.792193 29.466644 57.125729 59.683597 0.852623 19.317022 1.137399 38.644276 0.852622 57.978352z" fill="#694A48" p-id="5508"></path><path d="M559.321277 436.542881a53.113286 53.113286 0 0 0 3.410491 3.410491c-1.70013 3.940823-2.552753 7.919161-2.557868 11.93672a550.086661 550.086661 0 0 1 24.726061 15.34721c-1.918401 5.594911-5.044117 10.142801-9.378851 13.641965a281.462728 281.462728 0 0 1-17.905079-10.231473l-1.705246 1.705245 10.231474 18.757702c-4.082358 4.350082-8.913319 7.760573-14.494588 10.231474a1339.538651 1339.538651 0 0 0-7.673605-11.93672c5.182241-6.079201 6.317935-12.900183 3.410491-20.462947a25.0637 25.0637 0 0 1 5.115737-5.96836 64.652683 64.652683 0 0 0-13.641965-4.263114 4201.142035 4201.142035 0 0 0-127.893422-40.925895c-0.356396-3.775414 1.064073-6.618058 4.263114-8.526228 8.534754 4.900876 17.345759 5.753499 26.431307 2.557868a77.116323 77.116323 0 0 1 11.93672-7.673605 740.47563 740.47563 0 0 0 54.56786 15.347211c-1.614868 8.053875 0.658225 14.590082 6.820982 19.610324 9.864846 4.437049 20.09632 6.710142 30.694422 6.820983 4.437049-3.633878 8.983234-6.761299 13.641965-9.378851z" fill="#FC2529" p-id="5509"></path><path d="M231.914116 448.4796l-1.705246 3.410492a417.282132 417.282132 0 0 0-49.452123 5.115736l-5.115737-1.705245a641.400859 641.400859 0 0 1 23.873439-48.599501c1.137399-1.137399 2.273092-1.137399 3.410491 0a343.236956 343.236956 0 0 1 28.989176 41.778518z" fill="#66A3FE" p-id="5510"></path><path d="M465.532767 414.374688c4.810498 0.066505 9.358388 1.202198 13.641965 3.410491-1.173209 3.782235 0.532037 6.340103 5.115737 7.673605-4.309156 0.874791-8.002718 2.864813-11.084097 5.96836a24.427644 24.427644 0 0 0-9.37885-4.263114c-1.831434-1.260177-2.968833-2.965422-3.410492-5.115737a35.78799 35.78799 0 0 1 5.115737-7.673605z" fill="#E12230" p-id="5511"></path><path d="M787.824191 605.362198a55.294295 55.294295 0 0 0 14.494588 13.641965c0.765655 8.401745-2.929612 14.370105-11.084097 17.905079a87.900296 87.900296 0 0 1-23.873439 9.378851c-7.786152-8.613196-17.449779-14.013709-28.989175-16.199833-13.630028-0.852623-27.271993-1.135694-40.925895-0.852623v-5.115737c28.927787-10.06777 43.707151-30.530718 44.336386-61.388843 9.40443 0.257492 14.520167-4.290398 15.347211-13.641965-1.154451-9.112833-6.270188-14.22857-15.347211-15.34721v-18.757702c-19.47561-0.997569-30.559707-11.229042-33.25229-30.694421-11.500177 14.874858-26.562611 24.253709-45.189009 28.136552a290.843284 290.843284 0 0 1-49.452123 2.557869v18.757702c-13.244643 3.19222-16.93991 11.150601-11.084097 23.873439 2.956896 3.326934 6.652163 5.03218 11.084097 5.115736 2.112799 32.757769 18.597409 53.790268 49.452123 63.094089v3.410491c-18.198381-0.284776-36.388236 0-54.56786 0.852623-9.075317 3.130831-17.033699 7.961792-23.873439 14.494588v-13.641965c-0.284776-44.339797 0-88.676183 0.852623-133.009159 11.411504-59.84389 47.506438-87.980443 108.283097-84.409659 38.403837 8.275557 63.129898 31.296373 74.178185 69.062448 1.398301 32.464466 3.671394 64.864133 6.820983 97.199001 1.609752 10.042192 5.872866 18.56842 12.789342 25.578684z" fill="#70554B" p-id="5512"></path><path d="M410.964907 417.785179a4201.142035 4201.142035 0 0 1 127.893422 40.925895c1.39148 4.445575 4.234125 7.856067 8.526228 10.231474 2.907444 7.562764 1.77175 14.383747-3.410491 20.462947a184.337052 184.337052 0 0 1-15.347211 5.115737c-6.241199 15.96451-16.472673 28.469076-30.694421 37.515404a9.765942 9.765942 0 0 0-5.115737 1.705246c-12.006634 4.559827-24.511201 6.265072-37.515404 5.115737-18.802038-3.425838-34.149249-12.521619-46.041632-27.28393-11.532576-17.431021-14.943067-36.473499-10.231473-57.125729-1.773455-3.633878-4.331324-6.759594-7.673606-9.378851-4.750814-10.378125-2.192946-18.336506 7.673606-23.873439a31.466898 31.466898 0 0 0 10.231473-0.852623c0.948117-0.653109 1.515963-1.505732 1.705246-2.557868z" fill="#F9CABA" p-id="5513"></path><path d="M429.722609 439.953372c13.205422-0.770771 17.18376 4.629742 11.936719 16.199834-8.839993 4.389302-14.523577 1.831434-17.052456-7.673606a20.374275 20.374275 0 0 1 5.115737-8.526228z" fill="#1B2847" p-id="5514"></path><path d="M474.058995 453.595337c14.961825-0.156883 18.372316 5.811477 10.231474 17.905079-15.497272 0.726435-18.907764-5.241925-10.231474-17.905079z" fill="#1D2948" p-id="5515"></path><path d="M946.412034 484.289759c2.199767 0.951527 3.620236 2.656773 4.263114 5.115736 3.615121 13.282158-1.21584 20.672693-14.494587 22.168194-0.409259 23.841039-10.072886 42.883517-28.989176 57.125728a66.910428 66.910428 0 0 1-18.757702 7.673605v11.93672c0.48429 3.265545-0.083557 6.106485-1.705246 8.526228v-18.757702a108.035837 108.035837 0 0 1-37.515403 0c-30.888819-11.092623-47.371724-33.260816-49.452124-66.504579-11.8003-1.857012-16.631261-8.677995-14.494587-20.462948 1.618278-2.716456 3.606595-4.989549 5.968359-6.820982 2.800013-2.695993 6.210505-3.831687 10.231474-3.410492v-11.936719c18.198381 0.284776 36.388236 0 54.56786-0.852623 7.450218-2.160546 13.98813-5.854108 19.610325-11.084097 0.847507 3.939117 1.130578 7.917455 0.852623 11.93672 12.214674-1.140809 18.183034-7.961792 17.905079-20.462948 10.381535 13.858531 24.306571 20.679514 41.778518 20.462948v11.936719c3.756656 0.177346 7.167147 1.313039 10.231473 3.410492z" fill="#F8CABA" p-id="5516"></path><path d="M538.858329 458.711074a64.652683 64.652683 0 0 1 13.641965 4.263114 25.0637 25.0637 0 0 0-5.115737 5.96836c-4.292103-2.375407-7.134748-5.785898-8.526228-10.231474z" fill="#212F2F" p-id="5517"></path><path d="M231.914116 448.4796a288.00746 288.00746 0 0 1 25.578684 34.104913l-3.410491 1.705246a502.263047 502.263047 0 0 1-23.873439-32.399667l1.705246-3.410492z" fill="#684C41" p-id="5518"></path><path d="M277.955748 479.174022a1193.944779 1193.944779 0 0 0-11.936719 49.452123c-2.888686 2.022421-5.731331 1.737645-8.526229-0.852623-14.51164-13.515777-15.649039-28.010365-3.410491-43.483763l3.410491-1.705246c6.408313-2.991001 13.229296-4.1284 20.462948-3.410491z" fill="#F9CABA" p-id="5519"></path><path d="M277.955748 479.174022a3685.990741 3685.990741 0 0 0 131.303913 32.399667c11.892383 14.762311 27.239594 23.858092 46.041632 27.28393-2.088926 13.266811 3.594658 20.657346 17.052457 22.168193 17.640766-1.222661 24.461749-10.316736 20.462947-27.28393a9.765942 9.765942 0 0 1 5.115737-1.705246 7694.486062 7694.486062 0 0 0 34.104913 11.084097c14.494588 5.400513 24.441286 15.347211 29.841798 29.841798a1351.586211 1351.586211 0 0 0 23.020816 57.978352v13.641965a357.598535 357.598535 0 0 0-17.052456 35.810158l-1.705246 6.820982c-1.137399 0-1.705246 0.567847-1.705245 1.705246h-10.231474a573.920879 573.920879 0 0 0-27.28393-24.726062c-14.750375-7.35643-27.539717-4.798561-38.368027 7.673606-2.910854 4.107937-4.331324 8.654122-4.263114 13.641965-13.751101 3.277482-27.960913 4.413176-42.631141 3.410491a5417.220903 5417.220903 0 0 1-45.189009-119.367194l-5.96836-5.96836a9427.88018 9427.88018 0 0 0-121.072439-31.547044c-2.068463-0.421196-3.205862-1.558595-3.410491-3.410491a1193.944779 1193.944779 0 0 1 11.936719-49.452123z" fill="#4685F7" p-id="5520"></path><path d="M436.543591 484.289759c15.969625-1.050431 22.507537 6.340103 19.610325 22.168193a11.899204 11.899204 0 0 1-4.263114 5.968359c-12.925762 3.001232-20.314591-2.114505-22.168193-15.34721 0.72814-5.154958 3.002938-9.418072 6.820982-12.789342z" fill="#D9496F" p-id="5521"></path><path d="M1195.377896 485.995004a101.18757 101.18757 0 0 1 13.641965 17.052456c-10.768626 5.823414-19.577925 3.550321-26.431307-6.820982a26.678568 26.678568 0 0 0-4.263114-6.820983 1064.678634 1064.678634 0 0 0 17.052456-3.410491z" fill="#FF725B" p-id="5522"></path><path d="M828.750086 489.405495c15.969625-0.961759 19.380117 5.006601 10.231474 17.90508-13.67607 0.230208-17.086561-5.738152-10.231474-17.90508z" fill="#1A2646" p-id="5523"></path><path d="M697.446173 624.1199a193.008226 193.008226 0 0 1-34.104913 1.705246c-30.854714-9.30382-47.339324-30.33632-49.452123-63.094089-4.431933-0.083557-8.127201-1.788803-11.084097-5.115736-5.855813-12.722838-2.160546-20.681219 11.084097-23.873439v-18.757702c16.569872 0.5525 33.054481-0.300123 49.452123-2.557869 18.626398-3.882844 33.688833-13.261695 45.189009-28.136552 2.692583 19.465379 13.776679 29.696853 33.25229 30.694421v18.757702c9.077022 1.118641 14.192759 6.234378 15.347211 15.34721-0.827044 9.351567-5.942781 13.899457-15.347211 13.641965-0.629236 30.858125-15.4086 51.321072-44.336386 61.388843z" fill="#F9CABA" p-id="5524"></path><path d="M893.54942 489.405495c14.862921-1.642152 18.841259 4.041432 11.936719 17.052457-14.542335 1.926928-18.520673-3.756656-11.936719-17.052457z" fill="#192646" p-id="5525"></path><path d="M849.213034 532.036636c13.086055-0.283071 26.160173 0 39.220649 0.852623 4.23583 3.894781 4.520606 8.157895 0.852623 12.789342-10.528187 11.251211-22.749682 13.239527-36.662781 5.96836-7.228536-5.709162-8.365935-12.245369-3.410491-19.610325z" fill="#D9486E" p-id="5526"></path><path d="M155.178063 532.036636c6.83633 5.120853 13.657312 10.23659 20.462947 15.347211a247.533455 247.533455 0 0 1-19.610324 13.641965c-0.852623-9.646575-1.135694-19.310201-0.852623-28.989176z" fill="#F3DE7E" p-id="5527"></path><path d="M492.816697 533.741882c3.998801 16.967194-2.822182 26.061269-20.462947 27.28393-13.457799-1.510848-19.141382-8.901382-17.052457-22.168193 13.004203 1.149336 25.508769-0.55591 37.515404-5.115737z" fill="#F4B2A4" p-id="5528"></path><path d="M641.173067 538.857619c5.085042-0.675277 9.632933 0.462122 13.641965 3.410491 4.353492 4.198315 4.353492 8.176653 0 11.936719l-8.526228-6.820982a33.91222 33.91222 0 0 0-6.820983 5.968359c-1.137399 1.137399-2.273092 1.137399-3.410491 0-2.407807-6.271893-0.702561-11.102854 5.115737-14.494587z" fill="#5F1220" p-id="5529"></path><path d="M702.56191 538.857619c10.616859-1.0078 16.017372 3.54009 16.199833 13.641965a6.219031 6.219031 0 0 1-2.557868 1.705245 53.942035 53.942035 0 0 0-9.378851-6.820982 41.394838 41.394838 0 0 0-5.96836 5.968359c-3.224619 0.526921-5.499417-0.895254-6.820983-4.263114 1.70013-4.527427 4.542774-7.937918 8.526229-10.231473z" fill="#5D111F" p-id="5530"></path><path d="M1125.462825 564.436303c12.056087 1.546658 14.898731 7.515017 8.526229 17.905079-11.362052 2.840939-16.193012-1.422175-14.494588-12.789342a51.554691 51.554691 0 0 1 5.968359-5.115737z" fill="#6CA7FF" p-id="5531"></path><path d="M1016.327105 605.362198l-51.157369-11.936719c8.043644-19.074878 21.685609-24.473685 40.925895-16.199834 10.108696 7.347903 13.519187 16.726754 10.231474 28.136553z" fill="#F9CBBA" p-id="5532"></path><path d="M849.213034 578.078268a108.035837 108.035837 0 0 0 37.515403 0v18.757702c-2.000253 3.417312-4.842898 5.975181-8.526228 7.673605-11.099444 2.999527-20.478295 0.441659-28.136553-7.673605a22.048826 22.048826 0 0 1-0.852622-8.526228v-10.231474z" fill="#F7B2A3" p-id="5533"></path><path d="M659.930769 581.488759c12.518208-0.283071 25.022774 0 37.515404 0.852623 3.628763 7.141569 1.923517 13.394704-5.115737 18.757702-17.006415 8.251684-28.943134 3.705499-35.810158-13.641965 0.617299-2.445322 1.752993-4.435344 3.410491-5.96836z" fill="#DA4A6F" p-id="5534"></path><path d="M849.213034 588.309742a22.048826 22.048826 0 0 0 0.852622 8.526228c7.658258 8.115264 17.037109 10.673132 28.136553 7.673605 3.683331-1.698425 6.525975-4.256293 8.526228-7.673605 1.621689-2.419744 2.189535-5.260683 1.705246-8.526228a36.10005 36.10005 0 0 1 11.936719 3.410491c-4.090884 16.300443-14.607134 24.826671-31.547044 25.578685-15.966215-0.431427-26.482465-8.105032-31.547044-23.020816 0.414375-1.538132 0.983927-2.958601 1.705246-4.263114a32.774821 32.774821 0 0 1 10.231474-1.705246z" fill="#6AC29F" p-id="5535"></path><path d="M838.98156 590.014988a18.967447 18.967447 0 0 0-1.705246 4.263114c5.06458 14.915784 15.580829 22.589389 31.547044 23.020816 16.93991-0.752013 27.45616-9.278241 31.547044-25.578685a1390.690904 1390.690904 0 0 1 37.515404 11.084097c7.6719 4.570058 14.492883 9.970571 20.462948 16.199833a2894.443004 2894.443004 0 0 1-18.757702 66.50458c-24.147983 1.137399-48.021422 2.273092-71.620317 3.410491h-1.705245c-2.114505-21.550894-14.051224-30.929745-35.810158-28.136553a162.862894 162.862894 0 0 0-34.104913 28.136553h-13.641965c0.293302-1.691604-0.27625-2.827297-1.705246-3.410491v-3.410492a170.023221 170.023221 0 0 0-13.641965-35.810158 87.900296 87.900296 0 0 0 23.873439-9.378851c8.154485-3.534974 11.849752-9.503334 11.084097-17.905079a55.294295 55.294295 0 0 1-14.494588-13.641965 286.784799 286.784799 0 0 1 51.157369-15.34721z" fill="#86D5AF" p-id="5536"></path><path d="M965.169736 593.425479l51.157369 11.936719a4517.695307 4517.695307 0 0 1-22.168193 83.557036h-126.188177c23.598894-1.137399 47.472333-2.273092 71.620317-3.410491a2894.443004 2894.443004 0 0 0 18.757702-66.50458l6.820982-25.578684z" fill="#6BC1A0" p-id="5537"></path><path d="M697.446173 624.1199v5.115737c0.303534 11.924783-5.664826 18.176213-17.905079 18.757702-11.261442-1.307923-16.66025-7.559354-16.199834-18.757702v-3.410491c11.466072 0.436543 22.834944-0.131304 34.104913-1.705246z" fill="#F7B0A2" p-id="5538"></path><path d="M663.34126 629.235637c-0.460416 11.198348 4.938391 17.449779 16.199834 18.757702 12.240253-0.581489 18.208613-6.832919 17.905079-18.757702 13.653902-0.283071 27.295867 0 40.925895 0.852623 11.539397 2.186125 21.203024 7.586638 28.989175 16.199833a170.023221 170.023221 0 0 1 13.641965 35.810158 3306.345086 3306.345086 0 0 1-211.450458 3.410492c0.404143-2.201472-0.163704-3.906718-1.705245-5.115737a357.598535 357.598535 0 0 1 17.052456-35.810158c6.83974-6.532796 14.798122-11.363757 23.873439-14.494588 18.179624-0.852623 36.369479-1.137399 54.56786-0.852623z" fill="#EE4D51" p-id="5539"></path><path d="M554.20554 688.919234h-13.641965c-3.686741 22.328486-16.760859 31.137785-39.22065 26.431307-12.533555-6.00417-18.218844-15.952573-17.052456-29.841798-0.06821-4.987843 1.35226-9.534028 4.263114-13.641965 10.82831-12.472167 23.617652-15.030035 38.368027-7.673606a573.920879 573.920879 0 0 1 27.28393 24.726062z" fill="#F8CBBB" p-id="5540"></path><path d="M866.26549 688.919234c-0.590015 17.642471-9.68409 26.736546-27.28393 27.28393-17.367927-0.883317-27.031554-9.977392-28.989176-27.28393h-13.641965a162.862894 162.862894 0 0 1 34.104913-28.136553c21.758934-2.793192 33.695654 6.585659 35.810158 28.136553z" fill="#F9CBBA" p-id="5541"></path><path d="M266.019029 678.68776h104.019983v10.231474h-18.757702v153.472107h-85.262281a1065.645509 1065.645509 0 0 1 18.757702-81.851791c-6.689679-27.198668-12.942814-54.482598-18.757702-81.85179zM1135.694299 678.68776c-6.244609 27.253236-12.49604 54.537166-18.757702 81.85179a1319.340017 1319.340017 0 0 1 18.757702 81.851791h-85.262281v-153.472107h-18.757702v-10.231474h104.019983z" fill="#5697F6" p-id="5542"></path><path d="M266.019029 678.68776a1639.457252 1639.457252 0 0 1 105.725229-1.705245v11.936719h69.91507c14.670228 1.002684 28.88004-0.133009 42.631141-3.410491-1.166388 13.889226 4.518901 23.837629 17.052456 29.841798 22.45979 4.706478 35.533908-4.102821 39.22065-26.431307h269.428809c1.957622 17.306538 11.621249 26.400613 28.989176 27.28393 17.59984-0.547384 26.693915-9.641459 27.28393-27.28393h163.70358v-11.936719a1639.457252 1639.457252 0 0 1 105.725229 1.705245h-104.019983v10.231474h18.757702v153.472107h85.262281a1066.286681 1066.286681 0 0 1-85.262281 1.705245c-1.638741 3.009759-2.208293 6.42025-1.705246 10.231474h-119.367194c-1.227777-7.213189-2.365176-14.602018-3.410491-22.168193-4.297219-1.759813-8.843404-2.612436-13.641965-2.557869L892.696797 849.212323a8.413682 8.413682 0 0 0-0.852623 5.115737h-30.694421a330.635191 330.635191 0 0 1-20.462948-19.610325c-6.089432-0.76395-11.773016 0.088673-17.052456 2.557869a58.256306 58.256306 0 0 0-1.705245 17.052456h-209.745213a564.835331 564.835331 0 0 0-30.694421 0c-0.509868-6.195157-3.92036-9.605649-10.231474-10.231474a1143.774748 1143.774748 0 0 0-46.041632-18.757702c-3.932296-7.342788-9.61588-13.026371-17.052456-17.052456 0.146651-1.698425-0.422901-3.118894-1.705246-4.263114l-10.231474-2.557869a824.704533 824.704533 0 0 1 11.084097-51.157368c3.429249-13.079234-0.549089-16.489725-11.936719-10.231474a498.52856 498.52856 0 0 1-11.084097 46.041632 2177.018884 2177.018884 0 0 1-14.494588-46.041632c-6.171284-4.848013-11.854868-4.280167-17.052456 1.705245a1086.973016 1086.973016 0 0 1-13.641965 46.041632 333.665412 333.665412 0 0 0-12.789342-50.304746c-6.277009-2.240693-10.255347-0.250671-11.93672 5.96836l16.199834 64.799334c4.614395 5.930844 9.730132 6.498691 15.34721 1.705246a2689.910728 2689.910728 0 0 1 16.199834-51.157369 746.036436 746.036436 0 0 1 13.641965 47.746877c-15.889479 11.810531-20.437369 27.157742-13.641965 46.041632-36.082998 1.70013-72.461002 2.269682-109.13572 1.705246 0.514984-4.363724-0.054568-8.343767-1.705246-11.936719v-153.472107h18.757702v-10.231474h-104.019983z" fill="#67A4FE" p-id="5543"></path><path d="M781.003208 685.508743c1.428996 0.583194 1.998548 1.718888 1.705246 3.410491h-218.27144c0-1.137399 0.567847-1.705246 1.705245-1.705246 71.910208 0.566142 143.530525-0.001705 214.860949-1.705245z" fill="#D55E71" p-id="5544"></path><path d="M567.847505 680.393006c1.541542 1.209019 2.109389 2.914265 1.705245 5.115737 70.858072 1.11182 141.340989-0.023873 211.450458-3.410492v3.410492c-71.330425 1.70354-142.950741 2.271387-214.860949 1.705245l1.705246-6.820982z" fill="#F84644" p-id="5545"></path><path d="M496.227188 801.465445a115.782768 115.782768 0 0 0-11.936719 3.410492 35.281532 35.281532 0 0 1-8.526228 1.705245 746.036436 746.036436 0 0 0-13.641965-47.746877 2689.910728 2689.910728 0 0 0-16.199834 51.157369c-5.617079 4.793445-10.732816 4.225599-15.34721-1.705246l-16.199834-64.799334c1.681372-6.219031 5.65971-8.209052 11.93672-5.96836a333.665412 333.665412 0 0 1 12.789342 50.304746 1086.973016 1086.973016 0 0 0 13.641965-46.041632c5.197589-5.985412 10.881172-6.553259 17.052456-1.705245a2177.018884 2177.018884 0 0 0 14.494588 46.041632 498.52856 498.52856 0 0 0 11.084097-46.041632c11.38763-6.258251 15.365968-2.84776 11.936719 10.231474a824.704533 824.704533 0 0 0-11.084097 51.157368z" fill="#FBFCFE" p-id="5546"></path><path d="M591.720944 736.666112c4.338145-0.675277 8.033412 0.462122 11.084096 3.410491 0.852623 19.886575 1.137399 39.781675 0.852623 59.683597 11.382515-0.283071 22.751387 0 34.104913 0.852623 3.584426 2.955191 4.152273 6.365682 1.705245 10.231473-15.915057 1.137399-31.83182 1.137399-47.746877 0l-2.557869-2.557868a682.183514 682.183514 0 0 1 0-68.209825c1.222661-0.927654 2.075284-2.065052 2.557869-3.410491z" fill="#FCFDFF" p-id="5547"></path><path d="M666.751751 736.666112c12.958162-1.635331 24.894881 0.922538 35.810159 7.673605 5.190768 4.965675 7.180789 10.934035 5.968359 17.905079-6.902834 5.366408-11.450724 3.661162-13.641965-5.115737-10.799321-11.368873-21.600346-11.368873-32.399667 0-7.243883 15.461462-5.253862 29.388203 5.96836 41.778518 6.77153 3.262135 13.592513 3.262135 20.462947 0a56.30039 56.30039 0 0 0 10.231474-15.347211c3.309882-1.266998 6.435597-0.982221 9.378851 0.852623 1.009505 14.378631-5.526701 23.757482-19.610325 28.136553-29.391614 4.061895-44.738824-8.727447-46.041631-38.368027 0.395617-17.425905 8.353998-29.930471 23.873438-37.515403zM743.487805 736.666112c35.718075-3.785645 51.917908 12.129412 48.5995 47.746877-6.549848 23.839334-22.181835 33.218185-46.894255 28.136553-17.865858-6.691384-26.392087-19.765502-25.578684-39.220649-0.346165-17.812996 7.612216-30.034491 23.873439-36.662781z" fill="#FAFCFF" p-id="5548"></path><path d="M966.874982 736.666112c9.505039-1.0078 13.485082 3.255314 11.936719 12.789342a1525.768526 1525.768526 0 0 0-2.557868 33.25229c-3.410491 9.094075-6.820983 9.094075-10.231474 0a220.508723 220.508723 0 0 1-1.705245-42.631141c1.222661-0.927654 2.075284-2.065052 2.557868-3.410491z" fill="#FAFBFF" p-id="5549"></path><path d="M525.216364 736.666112c15.357442-0.283071 30.704653 0 46.041632 0.852622 3.584426 2.955191 4.152273 6.365682 1.705246 10.231474-13.060476 0.852623-26.134595 1.135694-39.22065 0.852623v18.757702c11.950361-0.283071 23.887081 0 35.810158 0.852623 2.273092 3.410491 2.273092 6.820983 0 10.231473-11.923077 0.852623-23.859797 1.135694-35.810158 0.852623v20.462948c13.086055-0.283071 26.160173 0 39.22065 0.852623 3.584426 2.955191 4.152273 6.365682 1.705245 10.231473a286.535833 286.535833 0 0 1-53.715237-0.852622 351.526155 351.526155 0 0 1-1.705246-68.209826 51.554691 51.554691 0 0 1 5.96836-5.115736z" fill="#F8FAFF" p-id="5550"></path><path d="M806.581893 738.371357c7.276283-0.506458 14.382042 0.061389 21.31557 1.705246a1355.353099 1355.353099 0 0 0 13.641965 46.041632c3.144473-16.303853 7.975434-31.93584 14.494588-46.894255 6.689679-1.35226 13.225885-1.067484 19.610325 0.852623a716.697685 716.697685 0 0 1 0 69.915071c-3.978338 4.54789-7.958381 4.54789-11.93672 0l-1.705245-54.567861a470.154978 470.154978 0 0 1-16.199834 57.125729c-5.34765 1.775161-9.610764 0.352986-12.789342-4.263114a1801.989329 1801.989329 0 0 0-13.641965-52.862615l-1.705246 54.567861c-3.978338 4.54789-7.958381 4.54789-11.936719 0a519.963497 519.963497 0 0 1 0.852623-71.620317z" fill="#FCFDFF" p-id="5551"></path><path d="M898.665157 736.666112c15.357442-0.283071 30.704653 0 46.041632 0.852622 3.584426 2.955191 4.152273 6.365682 1.705245 10.231474-13.060476 0.852623-26.134595 1.135694-39.220649 0.852623v18.757702c11.950361-0.283071 23.887081 0 35.810158 0.852623 2.273092 3.410491 2.273092 6.820983 0 10.231473-11.923077 0.852623-23.859797 1.135694-35.810158 0.852623v20.462948c13.086055-0.283071 26.160173 0 39.220649 0.852623 3.584426 2.955191 4.152273 6.365682 1.705246 10.231473a409.906944 409.906944 0 0 1-52.862614 0l-2.557869-2.557868c-1.137399-22.168193-1.137399-44.336386 0-66.50458a51.554691 51.554691 0 0 1 5.96836-5.115736z" fill="#F8FAFF" p-id="5552"></path><path d="M748.603541 748.602831c14.571324-2.806834 23.950175 2.876749 28.136553 17.052456 1.981495 10.328673 0.27625 19.990595-5.115737 28.989176-16.109455 11.416619-28.046175 8.006128-35.810158-10.231474-3.610005-15.052203 0.653109-26.988923 12.789342-35.810158z" fill="#67A3FF" p-id="5553"></path><path d="M968.580228 798.054954c10.488966 1.028263 12.762058 5.859224 6.820982 14.494588-9.378851 1.990022-13.074118-1.705246-11.084096-11.084097 1.696719-0.965169 3.117189-2.102568 4.263114-3.410491z" fill="#F6F9FF" p-id="5554"></path><path d="M496.227188 801.465445l10.231474 2.557869c1.282345 1.14422 1.851897 2.564689 1.705246 4.263114a637.647614 637.647614 0 0 0-17.052456 61.388843h5.115736c-5.320366 4.017559-11.005655 4.300629-17.052456 0.852622-1.282345-1.14422-1.851897-2.564689-1.705245-4.263114l15.34721-61.388842h-8.526228a115.782768 115.782768 0 0 1 11.936719-3.410492z" fill="#FE9A89" p-id="5555"></path><path d="M484.290469 804.875937h8.526228l-15.34721 61.388842c-6.734015-2.757382-11.849752-7.305272-15.347211-13.641965-6.795404-18.88389-2.247514-34.231101 13.641965-46.041632a35.281532 35.281532 0 0 0 8.526228-1.705245zM508.163908 808.286428c7.436576 4.026085 13.12016 9.709669 17.052456 17.052456 2.503301 15.217612-1.476743 28.29173-11.936719 39.22065a73.79962 73.79962 0 0 1-17.052457 5.115737h-5.115736a637.647614 637.647614 0 0 1 17.052456-61.388843z" fill="#FE755D" p-id="5556"></path><path d="M525.216364 825.338884a1143.774748 1143.774748 0 0 1 46.041632 18.757702 247.228216 247.228216 0 0 0-8.526228 27.28393l-49.452123-6.820982c10.459977-10.928919 14.44002-24.003037 11.936719-39.22065z" fill="#DAD9D9" p-id="5557"></path><path d="M925.949087 832.159867a431.065632 431.065632 0 0 1-34.104913 30.694421v-8.526228a8.413682 8.413682 0 0 1 0.852623-5.115737l19.610325-19.610325c4.798561-0.054568 9.344746 0.798055 13.641965 2.557869z" fill="#CEAEFF" p-id="5558"></path><path d="M861.149753 854.32806c5.281146 6.778351 6.416839 14.167181 3.410491 22.168193l-40.925895-39.220649c5.27944-2.469196 10.963024-3.321818 17.052456-2.557869a330.635191 330.635191 0 0 0 20.462948 19.610325z" fill="#CEADFF" p-id="5559"></path><path d="M266.019029 842.391341h85.262281c1.650678 3.592953 2.22023 7.572996 1.705246 11.936719-1.638741-3.009759-2.208293-6.42025-1.705246-10.231474a1066.286681 1066.286681 0 0 1-85.262281-1.705245z" fill="#ABCAFA" p-id="5560"></path><path d="M571.257996 844.096586c6.311114 0.625825 9.721605 4.036316 10.231474 10.231474a36.55194 36.55194 0 0 0-1.705246 11.936719c-4.189789 6.687973-9.875077 8.393219-17.052456 5.115737a247.228216 247.228216 0 0 1 8.526228-27.28393z" fill="#BCBBBA" p-id="5561"></path><path d="M612.183891 856.033306v-1.705246h209.745213c0.457006 2.726688-0.112546 4.99978-1.705246 6.820982v-5.115736h-208.039967z" fill="#DFEBFE" p-id="5562"></path><path d="M1050.432018 844.096586v11.93672h-121.07244v-1.705246h119.367194c-0.503047-3.811224 0.066505-7.221715 1.705246-10.231474z" fill="#DCEAFF" p-id="5563"></path><path d="M612.183891 854.32806v1.705246c-0.018758 2.586858-1.154451 4.576879-3.410491 5.968359-9.039507 5.86434-18.703134 7.286515-28.989176 4.263114a36.55194 36.55194 0 0 1 1.705246-11.936719 564.835331 564.835331 0 0 1 30.694421 0z" fill="#E1E2E3" p-id="5564"></path><path d="M925.949087 832.159867c1.045316 7.566175 2.182714 14.955004 3.410491 22.168193v13.641965a389.106358 389.106358 0 0 1-32.399667-2.557868c-2.109389-0.395617-3.814634-1.24824-5.115737-2.557869a431.065632 431.065632 0 0 0 34.104913-30.694421z" fill="#E2D8FF" p-id="5565"></path><path d="M823.634349 837.275604l40.925895 39.220649a363.855081 363.855081 0 0 1-44.336386 5.115737v-20.462948c1.592699-1.821202 2.162251-4.094295 1.705246-6.820982a58.256306 58.256306 0 0 1 1.705245-17.052456z" fill="#E2D7FF" p-id="5566"></path></svg>